<svg width="20" height="20" viewBox="0 0 20 20" fill="none" xmlns="http://www.w3.org/2000/svg">
<g clip-path="url(#clip0_25_8396)">
<path d="M10 12.5C11.3807 12.5 12.5 11.3807 12.5 10C12.5 8.61929 11.3807 7.5 10 7.5C8.61929 7.5 7.5 8.61929 7.5 10C7.5 11.3807 8.61929 12.5 10 12.5Z" stroke="#001514" stroke-width="2" stroke-linecap="round" stroke-linejoin="round"/>
<path d="M16.1667 12.5C16.0558 12.7514 16.0227 13.0302 16.0717 13.3005C16.1207 13.5708 16.2496 13.8203 16.4417 14.0167L16.4917 14.0667C16.6467 14.2215 16.7696 14.4053 16.8535 14.6076C16.9373 14.8099 16.9805 15.0268 16.9805 15.2458C16.9805 15.4649 16.9373 15.6817 16.8535 15.8841C16.7696 16.0864 16.6467 16.2702 16.4917 16.425C16.3369 16.58 16.1531 16.7029 15.9508 16.7868C15.7484 16.8706 15.5316 16.9138 15.3125 16.9138C15.0935 16.9138 14.8766 16.8706 14.6743 16.7868C14.472 16.7029 14.2882 16.58 14.1334 16.425L14.0834 16.375C13.887 16.1829 13.6375 16.054 13.3672 16.005C13.0969 15.956 12.8181 15.9891 12.5667 16.1C12.3202 16.2056 12.11 16.381 11.962 16.6046C11.8139 16.8282 11.7344 17.0902 11.7334 17.3583V17.5C11.7334 17.942 11.5578 18.366 11.2452 18.6785C10.9327 18.9911 10.5087 19.1667 10.0667 19.1667C9.62468 19.1667 9.20076 18.9911 8.8882 18.6785C8.57563 18.366 8.40004 17.942 8.40004 17.5V17.425C8.39359 17.1492 8.30431 16.8817 8.1438 16.6573C7.98329 16.4328 7.75899 16.2619 7.50004 16.1667C7.24869 16.0557 6.96988 16.0227 6.69955 16.0717C6.42922 16.1207 6.17977 16.2496 5.98337 16.4417L5.93337 16.4917C5.77858 16.6466 5.59477 16.7696 5.39244 16.8534C5.19011 16.9373 4.97323 16.9805 4.75421 16.9805C4.53518 16.9805 4.3183 16.9373 4.11597 16.8534C3.91364 16.7696 3.72983 16.6466 3.57504 16.4917C3.42008 16.3369 3.29715 16.1531 3.21327 15.9507C3.1294 15.7484 3.08623 15.5315 3.08623 15.3125C3.08623 15.0935 3.1294 14.8766 3.21327 14.6743C3.29715 14.4719 3.42008 14.2881 3.57504 14.1333L3.62504 14.0833C3.81715 13.8869 3.94603 13.6375 3.99504 13.3672C4.04406 13.0968 4.01097 12.818 3.90004 12.5667C3.7944 12.3202 3.619 12.11 3.39543 11.9619C3.17185 11.8139 2.90986 11.7344 2.64171 11.7333H2.50004C2.05801 11.7333 1.63409 11.5577 1.32153 11.2452C1.00897 10.9326 0.833374 10.5087 0.833374 10.0667C0.833374 9.62465 1.00897 9.20073 1.32153 8.88817C1.63409 8.5756 2.05801 8.40001 2.50004 8.40001H2.57504C2.85087 8.39356 3.11838 8.30427 3.34279 8.14377C3.5672 7.98326 3.73814 7.75896 3.83337 7.50001C3.9443 7.24866 3.97739 6.96985 3.92838 6.69952C3.87936 6.42919 3.75049 6.17974 3.55837 5.98334L3.50837 5.93334C3.35341 5.77855 3.23048 5.59474 3.14661 5.39241C3.06273 5.19008 3.01956 4.9732 3.01956 4.75418C3.01956 4.53515 3.06273 4.31827 3.14661 4.11594C3.23048 3.91361 3.35341 3.7298 3.50837 3.57501C3.66316 3.42005 3.84698 3.29712 4.04931 3.21324C4.25164 3.12937 4.46851 3.0862 4.68754 3.0862C4.90657 3.0862 5.12344 3.12937 5.32577 3.21324C5.5281 3.29712 5.71192 3.42005 5.86671 3.57501L5.91671 3.62501C6.11311 3.81712 6.36255 3.946 6.63288 3.99501C6.90321 4.04403 7.18203 4.01094 7.43337 3.90001H7.50004C7.74651 3.79437 7.95672 3.61897 8.10478 3.3954C8.25285 3.17182 8.3323 2.90983 8.33337 2.64168V2.50001C8.33337 2.05798 8.50897 1.63406 8.82153 1.3215C9.13409 1.00894 9.55801 0.833344 10 0.833344C10.4421 0.833344 10.866 1.00894 11.1786 1.3215C11.4911 1.63406 11.6667 2.05798 11.6667 2.50001V2.57501C11.6678 2.84317 11.7472 3.10516 11.8953 3.32873C12.0434 3.55231 12.2536 3.72771 12.5 3.83334C12.7514 3.94427 13.0302 3.97736 13.3005 3.92835C13.5709 3.87933 13.8203 3.75046 14.0167 3.55834L14.0667 3.50834C14.2215 3.35338 14.4053 3.23045 14.6076 3.14658C14.81 3.0627 15.0268 3.01953 15.2459 3.01953C15.4649 3.01953 15.6818 3.0627 15.8841 3.14658C16.0864 3.23045 16.2702 3.35338 16.425 3.50834C16.58 3.66313 16.7029 3.84695 16.7868 4.04928C16.8707 4.25161 16.9139 4.46848 16.9139 4.68751C16.9139 4.90654 16.8707 5.12341 16.7868 5.32574C16.7029 5.52807 16.58 5.71189 16.425 5.86668L16.375 5.91668C16.1829 6.11308 16.0541 6.36252 16.005 6.63285C15.956 6.90318 15.9891 7.182 16.1 7.43334V7.50001C16.2057 7.74648 16.3811 7.95669 16.6047 8.10475C16.8282 8.25282 17.0902 8.33227 17.3584 8.33334H17.5C17.9421 8.33334 18.366 8.50894 18.6785 8.8215C18.9911 9.13406 19.1667 9.55798 19.1667 10C19.1667 10.442 18.9911 10.866 18.6785 11.1785C18.366 11.4911 17.9421 11.6667 17.5 11.6667H17.425C17.1569 11.6677 16.8949 11.7472 16.6713 11.8953C16.4477 12.0433 16.2723 12.2535 16.1667 12.5V12.5Z" stroke="#001514" stroke-width="2" stroke-linecap="round" stroke-linejoin="round"/>
</g>
<defs>
<clipPath id="clip0_25_8396">
<rect width="20" height="20" fill="white"/>
</clipPath>
</defs>
</svg>
